<svg width="16" height="13" viewBox="0 0 16 13" fill="none" xmlns="http://www.w3.org/2000/svg">
<path d="M7.99935 2.50046C10.526 2.50046 12.7793 3.92046 13.8793 6.16712C13.486 6.98046 12.9327 7.68046 12.2727 8.24712L13.2127 9.18712C14.1393 8.36712 14.8727 7.34046 15.3327 6.16712C14.1793 3.24046 11.3327 1.16712 7.99935 1.16712C7.15268 1.16712 6.33935 1.30046 5.57268 1.54712L6.67268 2.64712C7.10602 2.56046 7.54602 2.50046 7.99935 2.50046ZM7.28602 3.26046L8.66602 4.64046C9.04601 4.80712 9.35268 5.11379 9.51935 5.49379L10.8993 6.87379C10.9527 6.64712 10.9927 6.40712 10.9927 6.16046C10.9993 4.50712 9.65268 3.16712 7.99935 3.16712C7.75268 3.16712 7.51935 3.20046 7.28602 3.26046ZM1.33935 1.08046L3.12602 2.86712C2.03935 3.72046 1.17935 4.85379 0.666016 6.16712C1.81935 9.09379 4.66602 11.1671 7.99935 11.1671C9.01268 11.1671 9.98602 10.9738 10.8793 10.6205L13.1593 12.9005L14.0993 11.9605L2.27935 0.133789L1.33935 1.08046ZM6.33935 6.08046L8.07935 7.82046C8.05268 7.82712 8.02602 7.83379 7.99935 7.83379C7.07935 7.83379 6.33268 7.08712 6.33268 6.16712C6.33268 6.13379 6.33935 6.11379 6.33935 6.08046ZM4.07268 3.81379L5.23935 4.98046C5.08602 5.34712 4.99935 5.74712 4.99935 6.16712C4.99935 7.82046 6.34602 9.16712 7.99935 9.16712C8.41935 9.16712 8.81935 9.08046 9.17935 8.92712L9.83268 9.58046C9.24602 9.74046 8.63268 9.83379 7.99935 9.83379C5.47268 9.83379 3.21935 8.41379 2.11935 6.16712C2.58602 5.21379 3.26602 4.42712 4.07268 3.81379Z" fill="#9D9D9D"/>
</svg>
