<svg width="16" height="11" viewBox="0 0 16 11" fill="none" xmlns="http://www.w3.org/2000/svg">
<path d="M8.00008 1.83333C10.5267 1.83333 12.7801 3.25333 13.8801 5.5C12.7801 7.74667 10.5334 9.16667 8.00008 9.16667C5.46675 9.16667 3.22008 7.74667 2.12008 5.5C3.22008 3.25333 5.47341 1.83333 8.00008 1.83333ZM8.00008 0.5C4.66675 0.5 1.82008 2.57333 0.666748 5.5C1.82008 8.42667 4.66675 10.5 8.00008 10.5C11.3334 10.5 14.1801 8.42667 15.3334 5.5C14.1801 2.57333 11.3334 0.5 8.00008 0.5ZM8.00008 3.83333C8.92008 3.83333 9.66675 4.58 9.66675 5.5C9.66675 6.42 8.92008 7.16667 8.00008 7.16667C7.08008 7.16667 6.33341 6.42 6.33341 5.5C6.33341 4.58 7.08008 3.83333 8.00008 3.83333ZM8.00008 2.5C6.34675 2.5 5.00008 3.84667 5.00008 5.5C5.00008 7.15333 6.34675 8.5 8.00008 8.5C9.65341 8.5 11.0001 7.15333 11.0001 5.5C11.0001 3.84667 9.65341 2.5 8.00008 2.5Z" fill="#9D9D9D"/>
</svg>
